<svg width="124" height="118" viewBox="0 0 124 118" fill="none" xmlns="http://www.w3.org/2000/svg">
<path d="M56.1797 11.4376C58.4251 6.8057 65.0235 6.8057 67.2689 11.4376V11.4376C69.0163 15.0422 73.6846 16.0473 76.7607 13.4812L77.2055 13.1101C81.0665 9.88914 86.9368 12.5859 87.0085 17.6134V17.6134C87.0649 21.5693 90.8806 24.3794 94.6751 23.2594L95.4841 23.0206C100.236 21.618 104.443 26.4406 102.407 30.9582V30.9582C100.793 34.5393 103.135 38.6543 107.038 39.096L107.586 39.158C112.525 39.717 114.461 45.8684 110.731 49.1545V49.1545C107.776 51.7583 108.279 56.5054 111.705 58.4484V58.4484C116.063 60.92 115.425 67.4048 110.658 68.9479L110.424 69.0237C106.687 70.2336 105.239 74.7542 107.579 77.9097V77.9097C110.528 81.8871 107.4 87.4827 102.467 87.0534L101.707 86.9873C97.784 86.6459 94.6423 90.1843 95.4456 94.0392V94.0392C96.4618 98.9162 91.3284 102.765 86.9315 100.423L86.244 100.057C82.7308 98.1859 78.3971 100.141 77.4748 104.013V104.013C76.2963 108.961 69.9233 110.359 66.7824 106.358L66.6104 106.139C64.1233 102.97 59.3252 102.97 56.8382 106.139L56.6662 106.358C53.5253 110.359 47.1523 108.961 45.9737 104.013V104.013C45.0515 100.141 40.7178 98.1859 37.2046 100.057L36.5171 100.423C32.1202 102.765 26.9868 98.9162 28.003 94.0392V94.0392C28.8063 90.1843 25.6645 86.6459 21.7417 86.9873L20.9816 87.0534C16.0489 87.4827 12.9204 81.8871 15.8694 77.9097V77.9097C18.2092 74.7542 16.7619 70.2336 13.0245 69.0237L12.7906 68.9479C8.02377 67.4048 7.38537 60.92 11.7437 58.4484V58.4484C15.1698 56.5054 15.6731 51.7583 12.7177 49.1545V49.1545C8.98796 45.8684 10.9231 39.717 15.8624 39.158L16.4105 39.096C20.3135 38.6543 22.6553 34.5393 21.0416 30.9582V30.9582C19.0059 26.4406 23.2121 21.618 27.9645 23.0206L28.7735 23.2595C32.568 24.3794 36.3837 21.5693 36.4401 17.6135V17.6135C36.5118 12.5859 42.3821 9.88914 46.243 13.1101L46.6879 13.4812C49.7639 16.0473 54.4323 15.0422 56.1797 11.4376V11.4376Z" fill="#84BED6"/>
</svg>
