<svg width="81" height="70" viewBox="0 0 81 70" fill="none" xmlns="http://www.w3.org/2000/svg">
<path d="M16.7775 19.6154L25.9763 33.4625C26.3318 33.9977 26.5096 34.2652 26.5099 34.5664C26.5103 34.8677 26.3332 35.1357 25.979 35.6717L16.8146 49.5416C15.4093 51.6685 14.7066 52.732 15.1612 53.3004C15.6157 53.8689 16.8077 53.4175 19.1917 52.5145L61.7529 36.3939C63.8362 35.6048 64.8778 35.2103 64.877 34.5188C64.8761 33.8273 63.8335 33.4354 61.7482 32.6515L19.1472 16.6366C16.761 15.7396 15.5679 15.2911 15.1147 15.8607C14.6616 16.4303 15.3669 17.492 16.7775 19.6154Z" fill="#222222"/>
</svg>
